<svg width="184" height="24" viewBox="0 0 184 24" fill="none" xmlns="http://www.w3.org/2000/svg">
<path d="M21.6328 6.64689C21.3187 5.91948 20.8657 5.2603 20.2992 4.70627C19.7323 4.15058 19.064 3.70898 18.3305 3.40549C17.5699 3.08953 16.7541 2.92781 15.9305 2.9297C14.775 2.9297 13.6477 3.24611 12.668 3.84377C12.4336 3.98674 12.2109 4.14377 12 4.31486C11.7891 4.14377 11.5664 3.98674 11.332 3.84377C10.3523 3.24611 9.225 2.9297 8.06953 2.9297C7.2375 2.9297 6.43125 3.08908 5.66953 3.40549C4.93359 3.71017 4.27031 4.14845 3.70078 4.70627C3.13359 5.25968 2.6805 5.91901 2.36719 6.64689C2.04141 7.40392 1.875 8.20783 1.875 9.03517C1.875 9.81564 2.03438 10.6289 2.35078 11.4563C2.61563 12.1477 2.99531 12.8649 3.48047 13.5891C4.24922 14.7352 5.30625 15.9305 6.61875 17.1422C8.79375 19.1508 10.9477 20.5383 11.0391 20.5945L11.5945 20.9508C11.8406 21.1078 12.157 21.1078 12.4031 20.9508L12.9586 20.5945C13.05 20.536 15.2016 19.1508 17.3789 17.1422C18.6914 15.9305 19.7484 14.7352 20.5172 13.5891C21.0023 12.8649 21.3844 12.1477 21.6469 11.4563C21.9633 10.6289 22.1227 9.81564 22.1227 9.03517C22.125 8.20783 21.9586 7.40392 21.6328 6.64689Z" fill="#F6C050"/>
<path d="M21.6328 6.64689C21.3187 5.91948 20.8657 5.2603 20.2992 4.70627C19.7323 4.15058 19.064 3.70898 18.3305 3.40549C17.5699 3.08953 16.7541 2.92781 15.9305 2.9297C14.775 2.9297 13.6477 3.24611 12.668 3.84377C12.4336 3.98674 12.2109 4.14377 12 4.31486C11.7891 4.14377 11.5664 3.98674 11.332 3.84377C10.3523 3.24611 9.225 2.9297 8.06953 2.9297C7.2375 2.9297 6.43125 3.08908 5.66953 3.40549C4.93359 3.71017 4.27031 4.14845 3.70078 4.70627C3.13359 5.25968 2.6805 5.91901 2.36719 6.64689C2.04141 7.40392 1.875 8.20783 1.875 9.03517C1.875 9.81564 2.03438 10.6289 2.35078 11.4563C2.35078 11.4563 9.87196 11.4564 12 11.4563C14.1271 11.4561 21.6469 11.4563 21.6469 11.4563C21.9633 10.6289 22.1227 9.81564 22.1227 9.03517C22.125 8.20783 21.9586 7.40392 21.6328 6.64689Z" fill="#4386D1"/>
<path d="M36.864 18.112C36.1173 18.112 35.4453 17.984 34.848 17.728C34.2507 17.4613 33.7813 17.088 33.44 16.608C33.0987 16.128 32.928 15.568 32.928 14.928H34.88C34.9227 15.408 35.1093 15.8027 35.44 16.112C35.7813 16.4213 36.256 16.576 36.864 16.576C37.4933 16.576 37.984 16.4267 38.336 16.128C38.688 15.8187 38.864 15.424 38.864 14.944C38.864 14.5707 38.752 14.2667 38.528 14.032C38.3147 13.7973 38.0427 13.616 37.712 13.488C37.392 13.36 36.944 13.2213 36.368 13.072C35.6427 12.88 35.0507 12.688 34.592 12.496C34.144 12.2933 33.76 11.984 33.44 11.568C33.12 11.152 32.96 10.5973 32.96 9.904C32.96 9.264 33.12 8.704 33.44 8.224C33.76 7.744 34.208 7.376 34.784 7.12C35.36 6.864 36.0267 6.736 36.784 6.736C37.8613 6.736 38.7413 7.008 39.424 7.552C40.1173 8.08533 40.5013 8.82133 40.576 9.76H38.56C38.528 9.35467 38.336 9.008 37.984 8.72C37.632 8.432 37.168 8.288 36.592 8.288C36.0693 8.288 35.6427 8.42133 35.312 8.688C34.9813 8.95467 34.816 9.33867 34.816 9.84C34.816 10.1813 34.9173 10.464 35.12 10.688C35.3333 10.9013 35.6 11.072 35.92 11.2C36.24 11.328 36.6773 11.4667 37.232 11.616C37.968 11.8187 38.5653 12.0213 39.024 12.224C39.4933 12.4267 39.888 12.7413 40.208 13.168C40.5387 13.584 40.704 14.144 40.704 14.848C40.704 15.4133 40.5493 15.9467 40.24 16.448C39.9413 16.9493 39.4987 17.3547 38.912 17.664C38.336 17.9627 37.6533 18.112 36.864 18.112ZM44.9843 10.672V15.552C44.9843 15.8827 45.0589 16.1227 45.2083 16.272C45.3683 16.4107 45.6349 16.48 46.0083 16.48H47.1283V18H45.6883C44.8669 18 44.2376 17.808 43.8003 17.424C43.3629 17.04 43.1443 16.416 43.1443 15.552V10.672H42.1043V9.184H43.1443V6.992H44.9843V9.184H47.1283V10.672H44.9843ZM48.2014 13.552C48.2014 12.6667 48.3827 11.8827 48.7454 11.2C49.1187 10.5173 49.62 9.98933 50.2494 9.616C50.8894 9.232 51.5934 9.04 52.3614 9.04C53.0547 9.04 53.6574 9.17867 54.1694 9.456C54.692 9.72267 55.108 10.0587 55.4174 10.464V9.184H57.2574V18H55.4174V16.688C55.108 17.104 54.6867 17.4507 54.1534 17.728C53.62 18.0053 53.012 18.144 52.3294 18.144C51.572 18.144 50.8787 17.952 50.2494 17.568C49.62 17.1733 49.1187 16.6293 48.7454 15.936C48.3827 15.232 48.2014 14.4373 48.2014 13.552ZM55.4174 13.584C55.4174 12.976 55.2894 12.448 55.0334 12C54.788 11.552 54.4627 11.2107 54.0574 10.976C53.652 10.7413 53.2147 10.624 52.7454 10.624C52.276 10.624 51.8387 10.7413 51.4334 10.976C51.028 11.2 50.6974 11.536 50.4414 11.984C50.196 12.4213 50.0734 12.944 50.0734 13.552C50.0734 14.16 50.196 14.6933 50.4414 15.152C50.6974 15.6107 51.028 15.9627 51.4334 16.208C51.8494 16.4427 52.2867 16.56 52.7454 16.56C53.2147 16.56 53.652 16.4427 54.0574 16.208C54.4627 15.9733 54.788 15.632 55.0334 15.184C55.2894 14.7253 55.4174 14.192 55.4174 13.584ZM64.1011 9.04C64.7945 9.04 65.4131 9.184 65.9571 9.472C66.5118 9.76 66.9438 10.1867 67.2531 10.752C67.5625 11.3173 67.7171 12 67.7171 12.8V18H65.9091V13.072C65.9091 12.2827 65.7118 11.68 65.3171 11.264C64.9225 10.8373 64.3838 10.624 63.7011 10.624C63.0185 10.624 62.4745 10.8373 62.0691 11.264C61.6745 11.68 61.4771 12.2827 61.4771 13.072V18H59.6531V9.184H61.4771V10.192C61.7758 9.82933 62.1545 9.54667 62.6131 9.344C63.0825 9.14133 63.5785 9.04 64.1011 9.04ZM69.4358 13.552C69.4358 12.6667 69.6171 11.8827 69.9798 11.2C70.3531 10.5173 70.8544 9.98933 71.4838 9.616C72.1238 9.232 72.8331 9.04 73.6118 9.04C74.1878 9.04 74.7531 9.168 75.3078 9.424C75.8731 9.66933 76.3211 10 76.6518 10.416V6.16H78.4918V18H76.6518V16.672C76.3531 17.0987 75.9371 17.4507 75.4038 17.728C74.8811 18.0053 74.2784 18.144 73.5958 18.144C72.8278 18.144 72.1238 17.952 71.4838 17.568C70.8544 17.1733 70.3531 16.6293 69.9798 15.936C69.6171 15.232 69.4358 14.4373 69.4358 13.552ZM76.6518 13.584C76.6518 12.976 76.5238 12.448 76.2678 12C76.0224 11.552 75.6971 11.2107 75.2918 10.976C74.8864 10.7413 74.4491 10.624 73.9798 10.624C73.5104 10.624 73.0731 10.7413 72.6678 10.976C72.2624 11.2 71.9318 11.536 71.6758 11.984C71.4304 12.4213 71.3078 12.944 71.3078 13.552C71.3078 14.16 71.4304 14.6933 71.6758 15.152C71.9318 15.6107 72.2624 15.9627 72.6678 16.208C73.0838 16.4427 73.5211 16.56 73.9798 16.56C74.4491 16.56 74.8864 16.4427 75.2918 16.208C75.6971 15.9733 76.0224 15.632 76.2678 15.184C76.5238 14.7253 76.6518 14.192 76.6518 13.584ZM96.8838 9.184L94.1478 18H92.2278L90.4518 11.488L88.6758 18H86.7558L84.0038 9.184H85.8598L87.6998 16.272L89.5718 9.184H91.4758L93.2678 16.24L95.0918 9.184H96.8838ZM99.1749 8.016C98.8442 8.016 98.5669 7.904 98.3429 7.68C98.1189 7.456 98.0069 7.17867 98.0069 6.848C98.0069 6.51733 98.1189 6.24 98.3429 6.016C98.5669 5.792 98.8442 5.68 99.1749 5.68C99.4949 5.68 99.7669 5.792 99.9909 6.016C100.215 6.24 100.327 6.51733 100.327 6.848C100.327 7.17867 100.215 7.456 99.9909 7.68C99.7669 7.904 99.4949 8.016 99.1749 8.016ZM100.071 9.184V18H98.2469V9.184H100.071ZM104.594 10.672V15.552C104.594 15.8827 104.668 16.1227 104.818 16.272C104.978 16.4107 105.244 16.48 105.618 16.48H106.738V18H105.298C104.476 18 103.847 17.808 103.41 17.424C102.972 17.04 102.754 16.416 102.754 15.552V10.672H101.714V9.184H102.754V6.992H104.594V9.184H106.738V10.672H104.594ZM112.979 9.04C113.651 9.04 114.248 9.184 114.771 9.472C115.304 9.76 115.72 10.1867 116.019 10.752C116.328 11.3173 116.483 12 116.483 12.8V18H114.675V13.072C114.675 12.2827 114.477 11.68 114.083 11.264C113.688 10.8373 113.149 10.624 112.467 10.624C111.784 10.624 111.24 10.8373 110.835 11.264C110.44 11.68 110.243 12.2827 110.243 13.072V18H108.419V6.16H110.243V10.208C110.552 9.83467 110.941 9.54667 111.411 9.344C111.891 9.14133 112.413 9.04 112.979 9.04Z" fill="#1C2B32"/>
<path d="M124.774 6.88V13.968C124.774 14.8107 124.992 15.4453 125.43 15.872C125.878 16.2987 126.496 16.512 127.286 16.512C128.086 16.512 128.704 16.2987 129.142 15.872C129.59 15.4453 129.814 14.8107 129.814 13.968V6.88H131.638V13.936C131.638 14.8427 131.44 15.6107 131.046 16.24C130.651 16.8693 130.123 17.3387 129.462 17.648C128.8 17.9573 128.07 18.112 127.27 18.112C126.47 18.112 125.739 17.9573 125.078 17.648C124.427 17.3387 123.91 16.8693 123.526 16.24C123.142 15.6107 122.95 14.8427 122.95 13.936V6.88H124.774ZM137.501 13.6L141.565 18H139.101L135.837 14.208V18H134.013V6.16H135.837V13.04L139.037 9.184H141.565L137.501 13.6ZM144.696 10.464C144.963 10.016 145.315 9.66933 145.752 9.424C146.2 9.168 146.728 9.04 147.336 9.04V10.928H146.872C146.157 10.928 145.613 11.1093 145.24 11.472C144.877 11.8347 144.696 12.464 144.696 13.36V18H142.872V9.184H144.696V10.464ZM148.405 13.552C148.405 12.6667 148.586 11.8827 148.949 11.2C149.322 10.5173 149.823 9.98933 150.453 9.616C151.093 9.232 151.797 9.04 152.565 9.04C153.258 9.04 153.861 9.17867 154.373 9.456C154.895 9.72267 155.311 10.0587 155.621 10.464V9.184H157.461V18H155.621V16.688C155.311 17.104 154.89 17.4507 154.357 17.728C153.823 18.0053 153.215 18.144 152.533 18.144C151.775 18.144 151.082 17.952 150.453 17.568C149.823 17.1733 149.322 16.6293 148.949 15.936C148.586 15.232 148.405 14.4373 148.405 13.552ZM155.621 13.584C155.621 12.976 155.493 12.448 155.237 12C154.991 11.552 154.666 11.2107 154.261 10.976C153.855 10.7413 153.418 10.624 152.949 10.624C152.479 10.624 152.042 10.7413 151.637 10.976C151.231 11.2 150.901 11.536 150.645 11.984C150.399 12.4213 150.277 12.944 150.277 13.552C150.277 14.16 150.399 14.6933 150.645 15.152C150.901 15.6107 151.231 15.9627 151.637 16.208C152.053 16.4427 152.49 16.56 152.949 16.56C153.418 16.56 153.855 16.4427 154.261 16.208C154.666 15.9733 154.991 15.632 155.237 15.184C155.493 14.7253 155.621 14.192 155.621 13.584ZM160.784 8.016C160.454 8.016 160.176 7.904 159.952 7.68C159.728 7.456 159.616 7.17867 159.616 6.848C159.616 6.51733 159.728 6.24 159.952 6.016C160.176 5.792 160.454 5.68 160.784 5.68C161.104 5.68 161.376 5.792 161.6 6.016C161.824 6.24 161.936 6.51733 161.936 6.848C161.936 7.17867 161.824 7.456 161.6 7.68C161.376 7.904 161.104 8.016 160.784 8.016ZM161.68 9.184V18H159.856V9.184H161.68ZM168.523 9.04C169.216 9.04 169.835 9.184 170.379 9.472C170.934 9.76 171.366 10.1867 171.675 10.752C171.984 11.3173 172.139 12 172.139 12.8V18H170.331V13.072C170.331 12.2827 170.134 11.68 169.739 11.264C169.344 10.8373 168.806 10.624 168.123 10.624C167.44 10.624 166.896 10.8373 166.491 11.264C166.096 11.68 165.899 12.2827 165.899 13.072V18H164.075V9.184H165.899V10.192C166.198 9.82933 166.576 9.54667 167.035 9.344C167.504 9.14133 168 9.04 168.523 9.04ZM182.546 13.376C182.546 13.7067 182.524 14.0053 182.482 14.272H175.746C175.799 14.976 176.06 15.5413 176.53 15.968C176.999 16.3947 177.575 16.608 178.258 16.608C179.239 16.608 179.932 16.1973 180.338 15.376H182.306C182.039 16.1867 181.554 16.8533 180.85 17.376C180.156 17.888 179.292 18.144 178.258 18.144C177.415 18.144 176.658 17.9573 175.986 17.584C175.324 17.2 174.802 16.6667 174.418 15.984C174.044 15.2907 173.858 14.4907 173.858 13.584C173.858 12.6773 174.039 11.8827 174.402 11.2C174.775 10.5067 175.292 9.97333 175.954 9.6C176.626 9.22667 177.394 9.04 178.258 9.04C179.09 9.04 179.831 9.22133 180.482 9.584C181.132 9.94667 181.639 10.4587 182.002 11.12C182.364 11.7707 182.546 12.5227 182.546 13.376ZM180.642 12.8C180.631 12.128 180.391 11.5893 179.922 11.184C179.452 10.7787 178.871 10.576 178.178 10.576C177.548 10.576 177.01 10.7787 176.562 11.184C176.114 11.5787 175.847 12.1173 175.762 12.8H180.642Z" fill="#4386D1"/>
<path d="M32 19.6H121.769V20.4H32V19.6Z" fill="#1C2B32"/>
<path d="M121.766 19.6H183.138V20.4H121.766V19.6Z" fill="#4386D1"/>
</svg>
